# xmcd
#
# Track frame offsets:
#	150
#	16463
#	31544
#	43025
#	58073
#	77795
#	91792
#	105253
#	119338
#	133106
#	147265
#	164520
#	179127
#	194263
#	206450
#	217505
#	229598
#	241708
#	253945
#	269316
#	286577
#	303085
#
# Disc length: 4273 seconds
#
# Revision: 0
# Processed by: cddbd v1.5.2PL0 Copyright (c) Steve Scherf et al.
# Submitted via: EZCDAudioConverter 4.0.5.1
#
DISCID=2410af16
DTITLE=Milionário and José Rico - Só As Melhores
DYEAR=2005
DGENRE=Sertanejo
TTITLE0=Viva a Vida
TTITLE1=A Gangorra
TTITLE2=O Tropeiro
TTITLE3=Corpo e Alma
TTITLE4=Sonhei Com Você
TTITLE5=Canção De Um Amor Distante
TTITLE6=Ilusão Perdida
TTITLE7=A Fossa
TTITLE8=Vá Pro Inferno Com Seu Amor
TTITLE9=Agora é Outro
TTITLE10=Orgulhosa e Bonita
TTITLE11=Faz Um Ano
TTITLE12=Jogo Do Amor
TTITLE13=Nasci Para Te Amar
TTITLE14=Lágrimas Que Choram
TTITLE15=Amor Com Amor Se Paga
TTITLE16=Destino Cruel
TTITLE17=Águas Da Saudade
TTITLE18=Berço de Deus
TTITLE19=Mensagem do Além
TTITLE20=Sonho de Um Caminhoneiro
TTITLE21=O Último Julgamento
EXTD=
EXTT0=
EXTT1=
EXTT2=
EXTT3=
EXTT4=
EXTT5=
EXTT6=
EXTT7=
EXTT8=
EXTT9=
EXTT10=
EXTT11=
EXTT12=
EXTT13=
EXTT14=
EXTT15=
EXTT16=
EXTT17=
EXTT18=
EXTT19=
EXTT20=
EXTT21=
PLAYORDER=
